<?xml version="1.0" encoding="utf-8"?>
<!-- Generator: Adobe Illustrator 15.0.2, SVG Export Plug-In . SVG Version: 6.00 Build 0)  -->
<!DOCTYPE svg PUBLIC "-//W3C//DTD SVG 1.1//EN" "http://www.w3.org/Graphics/SVG/1.1/DTD/svg11.dtd">
<svg version="1.1" id="Layer_1" xmlns="http://www.w3.org/2000/svg" xmlns:xlink="http://www.w3.org/1999/xlink" x="0px" y="0px"
	 width="828px" height="236px" viewBox="0 0 828 236" enable-background="new 0 0 828 236" xml:space="preserve">
<g>
	<circle fill="#FFFFFF" cx="114.966" cy="117.119" r="99.141"/>
</g>
<path fill="#010101" d="M189.038,49.502c-17.641-18.875-41.543-30.14-67.301-31.724c-0.551-0.032-1.093,0.155-1.505,0.524
	c-0.411,0.369-0.657,0.888-0.683,1.439l-0.386,8.21c-0.054,1.125,0.808,2.087,1.933,2.157c22.49,1.416,43.379,11.264,58.819,27.729
	c0.406,0.434,0.955,0.652,1.507,0.652c0.492,0,0.988-0.176,1.383-0.531l6.107-5.517c0.411-0.371,0.656-0.892,0.68-1.444
	S189.417,49.905,189.038,49.502z"/>
<path fill="#010101" d="M111.646,19.68c-0.033-0.547-0.281-1.057-0.689-1.422c-0.41-0.363-0.947-0.549-1.493-0.518
	c-24.965,1.473-48.381,12.172-65.938,30.126c-0.383,0.394-0.596,0.923-0.588,1.47c0.008,0.549,0.233,1.073,0.627,1.455l5.904,5.723
	c0.4,0.39,0.919,0.584,1.437,0.584c0.536,0,1.071-0.209,1.476-0.621c15.4-15.739,35.93-25.118,57.806-26.412
	c1.138-0.066,2.006-1.043,1.938-2.182L111.646,19.68z"/>
<path fill="#010101" d="M196.843,60.067c-0.319-0.446-0.806-0.748-1.349-0.835c-0.542-0.088-1.099,0.045-1.544,0.368l-5.591,4.067
	c-0.917,0.668-1.124,1.949-0.464,2.871c10.846,15.161,16.577,33.035,16.577,51.689c0,49.07-39.921,88.992-88.992,88.992
	c-49.069,0-88.99-39.922-88.99-88.992c0-19.458,6.198-37.959,17.925-53.502c0.678-0.898,0.512-2.174-0.375-2.869l-5.442-4.264
	c-0.436-0.342-0.989-0.493-1.539-0.422c-0.55,0.071-1.046,0.359-1.38,0.802c-13.236,17.495-20.232,38.331-20.232,60.255
	c0,55.16,44.875,100.035,100.034,100.035c55.161,0,100.037-44.875,100.037-100.035C215.517,97.23,209.06,77.119,196.843,60.067z"/>
<g>
	<path d="M92.664,118.286c0-12.677,10.276-22.952,22.952-22.952c12.679,0,22.954,10.275,22.954,22.952H92.664z"/>
</g>
<path fill="#2A2D79" d="M174.798,62.459c-14.173-15.113-33.328-24.207-53.938-25.605c-0.277-0.02-0.55,0.074-0.757,0.259
	s-0.331,0.445-0.344,0.724l-0.379,8.067c-0.025,0.56,0.4,1.039,0.959,1.078c17.926,1.262,34.604,9.183,46.961,22.305
	c0.202,0.216,0.477,0.324,0.752,0.324c0.246,0,0.493-0.088,0.691-0.267l5.993-5.411c0.206-0.187,0.328-0.447,0.34-0.724
	C175.088,62.932,174.987,62.66,174.798,62.459z"/>
<path fill="#2A2D79" d="M111.687,37.75c-0.033-0.567-0.517-1-1.088-0.97c-20.254,1.138-39.268,9.748-53.538,24.248
	c-0.193,0.196-0.301,0.461-0.297,0.735c0.003,0.275,0.115,0.539,0.313,0.729l5.798,5.619c0.201,0.194,0.46,0.291,0.719,0.291
	c0.267,0,0.533-0.103,0.734-0.308c12.496-12.676,29.137-20.202,46.858-21.194c0.273-0.015,0.529-0.14,0.713-0.343
	c0.182-0.205,0.275-0.475,0.26-0.747L111.687,37.75z"/>
<path fill="#2DB560" d="M112.48,60.109c-0.016-0.283-0.256-0.498-0.541-0.484c-14.556,0.731-28.266,6.832-38.604,17.178
	c-0.098,0.098-0.152,0.23-0.15,0.369c0.001,0.138,0.058,0.27,0.156,0.365l5.475,5.307c0.101,0.098,0.23,0.146,0.359,0.146
	c0.131,0,0.264-0.05,0.363-0.151c8.823-8.785,20.507-13.959,32.899-14.568c0.137-0.008,0.267-0.068,0.358-0.17
	c0.091-0.102,0.14-0.238,0.131-0.375L112.48,60.109z"/>
<path fill="#2DB560" d="M157.661,77.939c-9.988-10.546-23.441-17.002-37.88-18.178c-0.141-0.012-0.278,0.035-0.383,0.127
	c-0.104,0.092-0.168,0.223-0.175,0.363l-0.356,7.619c-0.013,0.275,0.194,0.514,0.471,0.537c12.14,1.053,23.474,6.506,31.915,15.354
	c0.101,0.105,0.236,0.16,0.373,0.16c0.123,0,0.247-0.045,0.346-0.133l5.661-5.113c0.103-0.092,0.165-0.224,0.17-0.362
	C157.807,78.176,157.757,78.041,157.661,77.939z"/>
<path fill="#2DB560" d="M113.54,78.196c-0.017-0.282-0.256-0.5-0.54-0.485c-10.026,0.471-19.493,4.623-26.659,11.693
	c-0.099,0.098-0.154,0.23-0.154,0.37c0.002,0.14,0.058,0.272,0.157,0.368l5.174,5.015c0.101,0.097,0.229,0.146,0.359,0.146
	c0.13,0,0.261-0.049,0.36-0.146c5.721-5.588,13.262-8.861,21.232-9.216c0.138-0.006,0.269-0.067,0.36-0.17
	c0.093-0.103,0.141-0.238,0.132-0.376L113.54,78.196z"/>
<path fill="#2DB560" d="M144.21,90.075c-6.724-6.944-15.697-11.284-25.269-12.217c-0.14-0.015-0.281,0.03-0.388,0.124
	c-0.107,0.092-0.171,0.225-0.178,0.365l-0.338,7.218c-0.013,0.272,0.188,0.507,0.459,0.537c7.406,0.805,14.375,4.188,19.623,9.526
	c0.1,0.104,0.233,0.154,0.367,0.154c0.123,0,0.248-0.044,0.346-0.133l5.352-4.832c0.104-0.094,0.165-0.227,0.17-0.366
	C144.358,90.312,144.306,90.176,144.21,90.075z"/>
<g>
	<path fill="#2DB560" d="M162.759,84.117c-0.08-0.111-0.201-0.188-0.337-0.208c-0.136-0.021-0.274,0.013-0.386,0.093l-6.164,4.482
		c-0.229,0.167-0.28,0.488-0.115,0.718c5.834,8.144,9.07,17.74,9.355,27.753c0.009,0.278,0.237,0.5,0.517,0.5h7.626
		c0.14,0,0.272-0.056,0.37-0.156c0.097-0.099,0.149-0.233,0.146-0.373C173.477,105.086,169.67,93.74,162.759,84.117z"/>
	<path fill="#2DB560" d="M74.948,87.246l-6.006-4.705c-0.108-0.086-0.246-0.125-0.383-0.106c-0.137,0.019-0.262,0.089-0.346,0.198
		c-7.604,9.924-11.787,21.783-12.098,34.295c-0.004,0.139,0.049,0.273,0.146,0.373c0.097,0.1,0.23,0.156,0.369,0.156h7.627
		c0.279,0,0.508-0.223,0.516-0.502c0.302-10.565,3.852-20.591,10.267-28.99C75.212,87.739,75.171,87.42,74.948,87.246z"/>
	<path fill="#2DB560" d="M147.786,94.559c-0.137-0.022-0.275,0.011-0.387,0.092l-5.824,4.238c-0.229,0.166-0.281,0.484-0.117,0.716
		c3.625,5.103,5.686,11.104,5.959,17.358c0.013,0.276,0.24,0.494,0.516,0.494h7.209c0.141,0,0.273-0.057,0.371-0.158
		c0.098-0.101,0.149-0.236,0.145-0.375c-0.287-7.989-2.893-15.65-7.534-22.154C148.043,94.655,147.922,94.58,147.786,94.559z"/>
	<path fill="#2DB560" d="M83.206,93.713c-0.109-0.086-0.246-0.123-0.385-0.106c-0.137,0.019-0.262,0.09-0.345,0.2
		c-5.092,6.714-7.943,14.707-8.247,23.115c-0.004,0.14,0.048,0.275,0.145,0.375c0.098,0.102,0.232,0.158,0.371,0.158h7.209
		c0.275,0,0.503-0.217,0.516-0.492c0.289-6.57,2.537-12.826,6.504-18.09c0.169-0.226,0.127-0.543-0.094-0.718L83.206,93.713z"/>
</g>
<g>
	<path fill="#2A2D79" d="M97.157,187.471c-31.451-8.203-53.417-36.653-53.417-69.187c0-15.813,5.069-30.809,14.662-43.362
		c0.343-0.449,0.261-1.09-0.184-1.439l-6.356-4.979c-0.217-0.17-0.494-0.246-0.767-0.211c-0.274,0.034-0.522,0.176-0.689,0.396
		C39.411,83.041,33.6,100.19,33.6,118.285c0,37.224,25.146,69.724,61.151,79.032c0.085,0.022,0.172,0.033,0.259,0.033
		c0.186,0,0.369-0.05,0.531-0.146c0.236-0.143,0.407-0.375,0.473-0.645l1.885-7.853C98.031,188.163,97.7,187.612,97.157,187.471z"/>
	<path fill="#2A2D79" d="M181.446,70.521c-0.161-0.222-0.404-0.372-0.675-0.415c-0.271-0.044-0.548,0.023-0.77,0.186l-6.529,4.75
		c-0.46,0.334-0.562,0.979-0.229,1.438c8.84,12.239,13.512,26.696,13.512,41.807c0,32.306-21.766,60.704-52.931,69.065
		c-0.55,0.146-0.876,0.711-0.731,1.26l2.062,7.809c0.069,0.268,0.243,0.492,0.479,0.631c0.16,0.092,0.338,0.14,0.519,0.14
		c0.089,0,0.179-0.012,0.267-0.035c35.607-9.535,60.477-41.966,60.477-78.867C196.895,101.021,191.552,84.504,181.446,70.521z"/>
</g>
<path fill="#FFFFFF" d="M115.503,115.118c-1.771,0-3.211,1.44-3.211,3.21c0,1.771,1.44,3.211,3.211,3.211s3.211-1.438,3.211-3.211
	C118.714,116.558,117.273,115.118,115.503,115.118z"/>
<g>
	<path fill="#9E1D22" d="M115.176,123.835c-0.271-0.035-0.525,0.133-0.58,0.384l-9.266,42.618l-7.519,34.854
		c-0.055,0.255,0.115,0.505,0.385,0.565c2.893,0.646,5.879,1.129,8.876,1.425c0.018,0.001,0.036,0.003,0.055,0.003
		c0.117,0,0.232-0.038,0.326-0.109c0.105-0.082,0.174-0.199,0.188-0.327l3.65-35.054l4.324-43.835
		C115.64,124.103,115.447,123.873,115.176,123.835z"/>
	<path fill="#9E1D22" d="M132.972,201.191l-7.411-34.359l-9.682-42.68c-0.057-0.252-0.312-0.418-0.582-0.379
		c-0.271,0.039-0.462,0.27-0.436,0.523l4.168,41.166l3.896,37.572c0.014,0.131,0.082,0.25,0.191,0.331
		c0.093,0.069,0.205,0.106,0.322,0.106c0.021,0,0.045-0.002,0.066-0.005c3.051-0.378,6.111-0.954,9.098-1.718
		C132.864,201.688,133.026,201.44,132.972,201.191z"/>
	<g>
		<path fill="#FFFFFF" d="M115.64,127.008l-0.349-3.47l-0.582,5.794l-3.932,39.113l-3.65,35.283c2.389,0.238,4.805,0.374,7.25,0.374
			c3.066,0,6.086-0.212,9.062-0.585l-3.631-35.072L115.64,127.008z"/>
	</g>
</g>
<g>
	<g>
		<path fill="#9E1D22" d="M271.785,130.895c0,14.658-10.967,19.543-20.84,19.543c-9.87,0-21.038-4.885-21.038-19.543V98.791
			c0-14.062,8.376-20.841,21.137-20.841c13.363,0,20.741,8.075,20.741,20.937V130.895z M260.818,102.479
			c0-7.381-1.098-12.666-9.972-12.666c-8.774,0-9.972,4.985-9.972,12.565V129c0,5.983,2.892,10.271,9.972,10.271
			c6.382,0,9.972-4.285,9.972-10.467V102.479z"/>
	</g>
	<g>
		<path fill="#9E1D22" d="M278.765,170.279V99.387h10.369l0.598,0.695c1.097-0.498,4.488-1.496,7.678-1.496
			c12.864,0,18.945,8.477,18.945,19.346v13.857c0,12.462-7.777,18.746-18.546,18.746c-5.283,0-6.183-0.896-8.077-1.4v18.948
			L278.765,170.279z M305.389,117.531c0-4.984-1.896-8.173-7.579-8.173c-5.585,0-8.077,3.092-8.077,7.676v13.561
			c0,4.486,1.298,8.976,8.077,8.976c6.382,0,7.579-3.39,7.579-10.371V117.531z"/>
	</g>
	<g>
		<path fill="#9E1D22" d="M331.213,131.692v2.792c0,6.479,6.28,8.275,18.347,1.894l3.988,9.474
			c-4.687,2.893-10.771,4.588-16.453,4.688c-9.871,0.298-16.95-4.188-16.95-14.558v-20.44c0-10.969,7.478-17.052,18.347-17.052
			c11.068,0,17.549,6.282,17.549,16.751v15.154L331.213,131.692z M344.972,115.44c0-4.19-3.091-6.183-6.58-6.183
			c-5.583,0-7.179,3.885-7.179,6.379v5.982l13.759-0.896V115.44z"/>
	</g>
	<g>
		<path fill="#9E1D22" d="M386.65,149.343V117.93c0-7.478-6.482-11.367-14.958-7.079v38.49h-10.868V99.383h9.674l1.295,0.596
			c3.889-1.294,10.969-2.59,17.35,0.398c4.986,2.295,8.476,6.881,8.476,14.459v34.502H386.65V149.343L386.65,149.343z"/>
	</g>
	<g>
		<path fill="#9E1D22" d="M405.793,149.343v-69.8h20.341c10.371,0,19.245,5.783,19.245,17.651c0,3.886-0.598,9.771-6.58,13.858
			c-0.1,0.099-0.1,0.099-0.1,0.197v0.1c5.085,2.292,10.269,7.778,10.269,17.55c0,9.473-5.282,20.442-21.337,20.442L405.793,149.343
			L405.793,149.343z M421.549,108.162c7.279,0,11.066-2.193,11.066-9.275c0-6.479-3.689-8.373-10.07-8.373h-5.782v17.648H421.549z
			 M422.844,139.269c7.979,0,13.562-1.093,13.562-10.569c0-8.375-6.279-9.97-12.663-9.97h-6.979v20.539H422.844z"/>
	</g>
	<g>
		<path fill="#9E1D22" d="M454.055,149.343V99.385h10.171l0.798,0.396c6.979-2.39,11.666-1.094,16.948,0l-2.593,10.672
			c-6.68-3.391-14.355-0.2-14.355,6.781v32.108L454.055,149.343L454.055,149.343z"/>
	</g>
	<g>
		<path fill="#9E1D22" d="M518.667,130.993c0,10.173-5.285,19.349-18.448,19.349c-13.062,0-18.742-9.176-18.742-19.349v-13.159
			c0-12.565,6.68-19.545,18.742-19.545c11.568,0,18.448,7.479,18.448,19.545V130.993z M507.795,117.834
			c0-8.082-4.684-8.476-7.576-8.476c-3.391,0-7.775,1.196-7.775,8.476v14.154c0,5.783,3.688,7.581,7.775,7.581
			c4.09,0,7.576-2.194,7.576-7.581V117.834z"/>
	</g>
	<g>
		<path fill="#9E1D22" d="M564.23,114.84c0-7.576,3.488-12.062,8.474-14.356c6.586-3.091,14.359-1.896,17.452-0.798V79.543h10.867
			v69.8c-12.462,1.095-20.143,2.692-29.019-1.801c-4.483-2.29-7.774-6.681-7.774-13.856V114.84z M590.156,111.25
			c-6.183-3.088-15.062-2.492-15.062,7.578v15.557c0,4.484,7.082,7.38,15.062,5.283V111.25z"/>
	</g>
	<g>
		<path fill="#9E1D22" d="M638.418,148.742c-7.078,1.896-14.856,2.29-20.939,0.395c-7.875-2.588-11.166-7.671-11.166-17.741v-12.765
			c0-19.443,16.446-24.129,31.901-16.953l-2.987,9.474c-11.865-4.687-17.947,0.099-17.947,6.881v14.458
			c0,9.57,14.656,6.979,18.146,5.482L638.418,148.742z"/>
	</g>
	<g>
		<path fill="#9E1D22" d="M692.256,135.578c0,1.797,1.803,4.986,7.479,4.986c4.788,0,6.881-2.891,6.881-5.482
			c0-10.471-22.434-4.887-24.131-22.136c-0.594-6.284,3.891-14.758,17.052-14.758c7.079,0,11.164,2.892,11.164,2.892l-3.189,10.17
			c0,0-2.295-2.291-7.976-2.291c-6.183,0-5.479,2.989-5.188,4.184c1.298,5.785,23.832,4.193,23.832,22.14
			c0,7.776-5.481,15.554-18.446,15.554c-11.861,0-18.146-6.684-18.445-14.154L692.256,135.578z"/>
	</g>
	<g>
		<path fill="#9E1D22" d="M755.022,131.692v2.792c0,6.479,6.276,8.275,18.348,1.894l3.986,9.474
			c-4.688,2.893-10.771,4.588-16.452,4.688c-9.87,0.298-16.949-4.188-16.949-14.558v-20.44c0-10.969,7.479-17.052,18.344-17.052
			c11.071,0,17.552,6.282,17.552,16.751v15.154L755.022,131.692z M768.783,115.44c0-4.19-3.096-6.183-6.583-6.183
			c-5.583,0-7.178,3.885-7.178,6.379v5.982l13.761-0.896V115.44z"/>
	</g>
	<g>
		<path fill="#9E1D22" d="M784.635,149.343V99.385h10.173l0.795,0.396c6.981-2.39,11.667-1.094,16.95,0l-2.59,10.672
			c-6.681-3.391-14.36-0.2-14.36,6.781v32.108L784.635,149.343L784.635,149.343z"/>
	</g>
	<g>
		<g>
			<path fill="#9E1D22" d="M559.545,149.132h-11.76c-0.379-1.976-0.568-4.577-0.568-7.808c-2.062,3.561-4.106,5.921-6.152,7.089
				c-2.045,1.17-4.37,1.758-6.969,1.758c-3.845,0-6.949-1.269-9.32-3.806c-2.368-2.536-3.555-5.946-3.555-10.229
				c0-3.126,0.689-6.012,2.074-8.647c1.375-2.635,3.6-4.7,6.657-6.2s8.64-2.607,16.733-3.337v-2.863
				c0-4.843-1.984-7.265-5.959-7.265c-4.244,0-6.612,2.422-7.102,7.265l-11.186-1.285c0.73-5.666,2.94-9.688,6.629-12.057
				c3.688-2.371,7.865-3.558,12.531-3.558c2.794,0,5.426,0.396,7.895,1.187c2.465,0.79,4.394,1.975,5.777,3.559
				c1.381,1.58,2.316,3.252,2.807,5.013c0.486,1.765,0.732,4.835,0.732,9.219v22.628
				C558.812,144.145,559.055,147.256,559.545,149.132z M546.686,125.215c-8.459,1.021-12.69,4.135-12.69,9.34
				c0,1.746,0.446,3.256,1.335,4.522c0.896,1.267,2.162,1.903,3.818,1.903c2.135,0,3.926-1.082,5.364-3.238
				c1.449-2.156,2.173-4.817,2.173-7.979V125.215L546.686,125.215z"/>
		</g>
	</g>
	<g>
		<g>
			<path fill="#9E1D22" d="M678.526,148.84h-11.758c-0.382-1.979-0.567-4.58-0.567-7.81c-2.066,3.56-4.109,5.922-6.16,7.091
				c-2.038,1.17-4.363,1.757-6.963,1.757c-3.846,0-6.951-1.271-9.322-3.808c-2.367-2.536-3.555-5.947-3.555-10.229
				c0-3.131,0.688-6.014,2.076-8.646c1.375-2.636,3.598-4.703,6.655-6.203c3.061-1.499,8.642-2.608,16.734-3.337v-2.862
				c0-4.845-1.986-7.266-5.959-7.266c-4.245,0-6.609,2.421-7.103,7.266l-11.188-1.287c0.734-5.666,2.945-9.686,6.632-12.058
				c3.692-2.372,7.868-3.557,12.532-3.557c2.797,0,5.424,0.396,7.896,1.185c2.467,0.791,4.391,1.979,5.774,3.561
				c1.379,1.578,2.315,3.25,2.809,5.013c0.484,1.763,0.73,4.836,0.73,9.217v22.63C677.796,143.853,678.038,146.965,678.526,148.84z
				 M665.669,124.924c-8.46,1.021-12.69,4.134-12.69,9.34c0,1.745,0.443,3.252,1.334,4.521c0.896,1.27,2.164,1.902,3.816,1.902
				c2.142,0,3.932-1.08,5.371-3.238c1.443-2.154,2.169-4.815,2.169-7.979V124.924L665.669,124.924z"/>
		</g>
	</g>
	<g>
		<path fill="#9E1D22" d="M733.186,136.18v-26.524h7.076l2.396-10.269h-9.473V79.543h-11.169V99.07l-6.612-0.139l-3.343,10.762
			h3.438v-0.057h6.517v26.543c0,7.773,3.291,14.258,15.155,14.457l3.287-8.773C736.474,141.863,733.186,141.065,733.186,136.18z"/>
	</g>
</g>
</svg>
